<?xml version="1.0" encoding="utf-8"?>
<!-- Generator: Adobe Illustrator 24.1.2, SVG Export Plug-In . SVG Version: 6.00 Build 0)  -->
<svg version="1.1" id="Layer_1" xmlns="http://www.w3.org/2000/svg" xmlns:xlink="http://www.w3.org/1999/xlink" x="0px" y="0px"
	 viewBox="0 0 84 84" style="enable-background:new 0 0 84 84;" xml:space="preserve">
<style type="text/css">
	.st0{fill:#FFFFFF;}
</style>
<path class="st0" d="M42,34.4c-4.1,0-7.5,3.4-7.5,7.5s3.4,7.5,7.5,7.5s7.5-3.4,7.5-7.5S46.2,34.4,42,34.4z M42,34.4
	c-4.1,0-7.5,3.4-7.5,7.5s3.4,7.5,7.5,7.5s7.5-3.4,7.5-7.5S46.2,34.4,42,34.4z M42,34.4c-4.1,0-7.5,3.4-7.5,7.5s3.4,7.5,7.5,7.5
	s7.5-3.4,7.5-7.5S46.2,34.4,42,34.4z M42,34.4c-4.1,0-7.5,3.4-7.5,7.5s3.4,7.5,7.5,7.5s7.5-3.4,7.5-7.5S46.2,34.4,42,34.4z M42,34.4
	c-4.1,0-7.5,3.4-7.5,7.5s3.4,7.5,7.5,7.5s7.5-3.4,7.5-7.5S46.2,34.4,42,34.4z M42,34.4c-4.1,0-7.5,3.4-7.5,7.5s3.4,7.5,7.5,7.5
	s7.5-3.4,7.5-7.5S46.2,34.4,42,34.4z M69.1,28.9c-0.9-0.3-1.8-0.6-2.7-0.9c0.2-0.6,0.3-1.2,0.4-1.8c2-9.9,0.7-17.9-3.9-20.6
	C58.6,3.1,51.4,5.7,44.2,12c-0.7,0.6-1.4,1.2-2.1,1.9c-0.5-0.4-0.9-0.9-1.4-1.3C33.1,5.9,25.5,3.1,21,5.7
	c-4.4,2.5-5.7,10.1-3.8,19.5c0.2,0.9,0.4,1.8,0.6,2.8c-1.1,0.3-2.1,0.6-3.1,1C5.8,32.1,0.1,37,0.1,42c0,5.2,6.1,10.4,15.3,13.6
	c0.7,0.3,1.5,0.5,2.3,0.7c-0.3,1-0.5,2-0.7,3c-1.8,9.2-0.4,16.6,4,19.1c4.5,2.6,12.1-0.1,19.4-6.5c0.6-0.5,1.2-1,1.7-1.6
	c0.8,0.7,1.5,1.4,2.3,2.1c7.1,6.1,14.2,8.6,18.5,6.1c4.5-2.6,6-10.5,4.1-20.1c-0.1-0.7-0.3-1.5-0.5-2.2c0.5-0.2,1.1-0.3,1.6-0.5
	C77.7,52.4,84,47.2,84,41.9C84,36.9,78.1,32,69.1,28.9z M46.5,14.7c6.2-5.4,12-7.5,14.6-6c2.8,1.6,3.9,8.2,2.1,16.7
	c-0.1,0.5-0.2,1.1-0.4,1.7c-3.5-0.8-7.3-1.4-11.2-1.8c-2.3-3.3-4.7-6.3-7.1-8.9C45.2,15.9,45.9,15.3,46.5,14.7z M26.8,42
	c1.1-2.3,2.3-4.5,3.6-6.8c1.3-2.3,2.7-4.4,4.1-6.5c2.5-0.2,5.1-0.3,7.6-0.3c2.6,0,5.2,0.1,7.7,0.3c1.4,2.1,2.7,4.2,4,6.5
	s2.5,4.5,3.6,6.7c-1.1,2.2-2.3,4.5-3.6,6.8s-2.7,4.4-4,6.5c-2.5,0.2-5.1,0.3-7.7,0.3c-2.6,0-5.2-0.1-7.6-0.2
	c-1.4-2.1-2.8-4.3-4.1-6.5l0,0C29,46.5,27.8,44.3,26.8,42z M24.9,46.2c0.8,1.5,1.5,2.9,2.4,4.3c0.9,1.5,1.7,2.9,2.6,4.3
	c-2.8-0.3-5.3-0.7-7.7-1.2C22.9,51.2,23.8,48.8,24.9,46.2z M24.9,37.8c-1-2.5-1.9-4.9-2.7-7.3c2.4-0.5,5-1,7.6-1.3
	c-0.9,1.4-1.7,2.8-2.6,4.2C26.4,34.9,25.6,36.3,24.9,37.8z M56.9,50.5c0.9-1.5,1.7-3,2.4-4.4c1.1,2.6,2.1,5,2.8,7.4
	c-2.4,0.6-5.1,1-7.8,1.3C55.2,53.4,56,52,56.9,50.5z M59.3,37.8c-0.8-1.4-1.6-2.9-2.4-4.4c-0.8-1.4-1.7-2.8-2.6-4.2
	c2.7,0.3,5.2,0.8,7.7,1.3C61.2,32.9,60.3,35.3,59.3,37.8z M42.1,19.1c1.7,1.8,3.3,3.8,4.9,6C45.4,25,43.7,25,42,25s-3.3,0-4.9,0.1
	C38.7,22.9,40.4,20.9,42.1,19.1z M22.7,8.8c2.8-1.6,9,0.7,15.6,6.5c0.4,0.4,0.8,0.8,1.3,1.2c-2.4,2.6-4.8,5.6-7.1,8.8
	c-3.9,0.4-7.7,1-11.2,1.7c-0.2-0.9-0.4-1.7-0.6-2.6C19.1,16.4,20.1,10.4,22.7,8.8z M18.7,52.8c-0.7-0.2-1.4-0.4-2.1-0.6
	C12.5,50.8,9.1,49,6.8,47c-2.1-1.8-3.1-3.6-3.1-5c0-3.1,4.6-7,12.2-9.6c0.9-0.3,1.9-0.6,2.9-0.9c1.1,3.4,2.4,7,4.1,10.6
	C21.1,45.7,19.7,49.3,18.7,52.8z M38.1,69.1C34.8,72,31.6,74,28.7,75c-2.6,0.9-4.6,0.9-5.9,0.2c-2.6-1.5-3.7-7.4-2.2-15.3
	c0.2-0.9,0.4-1.8,0.6-2.8c3.4,0.8,7.2,1.3,11.3,1.6c2.3,3.3,4.8,6.3,7.2,8.9C39.1,68.2,38.6,68.6,38.1,69.1z M42.2,65.1
	c-1.7-1.8-3.4-3.9-5-6c1.6,0.1,3.2,0.1,4.9,0.1s3.4,0,5.1-0.1C45.5,61.2,43.8,63.2,42.2,65.1z M64,70c-0.5,2.7-1.5,4.5-2.7,5.2
	c-2.6,1.5-8.3-0.5-14.4-5.7c-0.7-0.6-1.4-1.2-2.1-1.9c2.4-2.6,4.7-5.6,7-8.9c4.1-0.4,7.9-0.9,11.4-1.7c0.2,0.7,0.3,1.4,0.5,2
	C64.4,63.2,64.5,67,64,70z M67,52.1c-0.5,0.2-0.9,0.3-1.4,0.4c-1.1-3.4-2.5-6.9-4.3-10.6c1.7-3.6,3.1-7.1,4.1-10.5
	c0.9,0.2,1.7,0.5,2.5,0.8c7.8,2.7,12.5,6.6,12.5,9.7C80.4,45.2,75.3,49.4,67,52.1z M42,49.4c4.1,0,7.5-3.4,7.5-7.5s-3.4-7.5-7.5-7.5
	s-7.5,3.4-7.5,7.5C34.5,46.1,37.9,49.4,42,49.4z M42,34.4c-4.1,0-7.5,3.4-7.5,7.5s3.4,7.5,7.5,7.5s7.5-3.4,7.5-7.5
	S46.2,34.4,42,34.4z M42,34.4c-4.1,0-7.5,3.4-7.5,7.5s3.4,7.5,7.5,7.5s7.5-3.4,7.5-7.5S46.2,34.4,42,34.4z M42,34.4
	c-4.1,0-7.5,3.4-7.5,7.5s3.4,7.5,7.5,7.5s7.5-3.4,7.5-7.5S46.2,34.4,42,34.4z M42,34.4c-4.1,0-7.5,3.4-7.5,7.5s3.4,7.5,7.5,7.5
	s7.5-3.4,7.5-7.5S46.2,34.4,42,34.4z M42,34.4c-4.1,0-7.5,3.4-7.5,7.5s3.4,7.5,7.5,7.5s7.5-3.4,7.5-7.5S46.2,34.4,42,34.4z M42,34.4
	c-4.1,0-7.5,3.4-7.5,7.5s3.4,7.5,7.5,7.5s7.5-3.4,7.5-7.5S46.2,34.4,42,34.4z"/>
</svg>
